<?xml version="1.0" encoding="UTF-8"?>
<svg version="1.1" xmlns="http://www.w3.org/2000/svg" width="512" height="512">
<path d="M0 0 C0.70240974 -0.00538554 1.40481947 -0.01077108 2.12851435 -0.01631981 C4.47611966 -0.03059796 6.82316099 -0.0234963 9.17079163 -0.01637268 C10.85635837 -0.02207634 12.54192124 -0.02904059 14.22747803 -0.03717041 C18.80187476 -0.05511747 23.37607983 -0.05393053 27.9505012 -0.04822803 C31.77015012 -0.0451384 35.5897621 -0.05122612 39.40940577 -0.05726677 C48.42071926 -0.07131548 57.43193796 -0.06974784 66.44325256 -0.05836487 C75.73813958 -0.04688311 85.03273808 -0.06095949 94.32758707 -0.08776134 C102.30990186 -0.10991625 110.29212608 -0.1165562 118.27446944 -0.11068493 C123.04107131 -0.10731367 127.80748824 -0.10974165 132.57406425 -0.12693596 C137.05655416 -0.14239969 141.53861657 -0.13845601 146.02108955 -0.11963081 C147.66499372 -0.11594333 149.30892953 -0.11905807 150.95280457 -0.1295166 C153.19957905 -0.14271816 155.44493654 -0.13118837 157.69165039 -0.11352539 C159.57619383 -0.11321146 159.57619383 -0.11321146 161.49880886 -0.1128912 C166.86271775 0.67438696 170.46531644 3.68924082 174.21238708 7.45024109 C174.79279755 8.02790222 175.37320801 8.60556335 175.97120667 9.20072937 C176.58548523 9.82219849 177.19976379 10.4436676 177.83265686 11.08396912 C178.49677582 11.74779602 179.16089478 12.41162292 179.84513855 13.0955658 C182.02495534 15.27676872 184.19761444 17.4649555 186.37025452 19.65330505 C187.88581833 21.17260154 189.4018262 22.69145518 190.91825867 24.20988464 C194.89778969 28.19703208 198.87127641 32.19015026 202.84352112 36.18455505 C206.90217409 40.26370935 210.96653289 44.33716975 215.03041077 48.41111755 C222.99563095 56.39775251 230.95447532 64.39070881 238.90931702 72.38768005 C241.72558009 71.10505285 243.76964765 69.77401365 245.94496155 67.5790863 C246.51684204 67.00706482 247.08872253 66.43504333 247.67793274 65.84568787 C248.29311768 65.22017029 248.90830261 64.59465271 249.54212952 63.95018005 C250.52823212 62.95969666 250.52823212 62.95969666 251.53425598 61.94920349 C252.95949771 60.51635704 254.38242434 59.08120489 255.80329895 57.64402771 C258.05154246 55.37025905 260.30597355 53.10279529 262.56214905 50.8368988 C267.350143 46.0260446 272.13027723 41.20742716 276.90931702 36.38768005 C282.446998 30.80282973 287.9878368 25.22119284 293.53718567 19.64793396 C295.75926097 17.41288242 297.9752317 15.17189592 300.1910553 12.9306488 C301.55257518 11.5618642 302.91437645 10.19335943 304.27650452 8.82518005 C304.89168945 8.19966248 305.50687439 7.5741449 306.14070129 6.92967224 C306.71258179 6.35765076 307.28446228 5.78562927 307.87367249 5.1962738 C308.36624542 4.69925964 308.85881836 4.20224548 309.36631775 3.69017029 C313.37837786 0.3034745 316.68284824 0.13411265 321.87974548 0.12025452 C322.58130079 0.1157234 323.2828561 0.11119229 324.00567067 0.10652387 C326.3562695 0.09386445 328.70663709 0.09550121 331.05726624 0.09715271 C332.7426839 0.09116842 334.42809882 0.08436311 336.11351013 0.07679749 C340.69205715 0.0591203 345.27052942 0.05444139 349.84910727 0.05316591 C353.67118531 0.051267 357.49324593 0.04390957 361.31531727 0.03682172 C370.33282486 0.02053371 379.35029251 0.01565315 388.36781311 0.01707458 C397.67005178 0.01827621 406.9720585 -0.00282889 416.27423847 -0.03441274 C424.26076979 -0.0605633 432.24722529 -0.07129323 440.2337991 -0.0700146 C445.00378198 -0.06950461 449.77355875 -0.0752079 454.54349899 -0.0963707 C459.03006104 -0.11573261 463.51621992 -0.11589166 468.00279617 -0.10133743 C469.64831887 -0.0992457 471.29386667 -0.10397196 472.93934631 -0.11605835 C475.18834487 -0.13150621 477.43595245 -0.12220746 479.68492126 -0.10679626 C480.94258238 -0.1078858 482.20024349 -0.10897533 483.49601555 -0.11009789 C488.50325036 0.62013091 491.68159568 2.79503093 494.74916077 6.7743988 C496.06987462 9.74934011 496.40792288 11.95009849 496.47181702 15.20018005 C496.51435608 16.17600037 496.55689514 17.15182068 496.60072327 18.1572113 C494.8937764 26.13260713 489.03924786 30.23902344 482.54286194 34.47386169 C455.80048138 51.92400312 422.29474088 75.97488421 415.26321524 109.08358938 C407.48234055 150.84805538 411.52646916 196.22884436 414.65150452 238.3316803 C414.76044981 239.86070253 414.86922546 241.38973685 414.97781849 242.91878414 C415.17861186 245.73614908 415.40899676 248.54875776 415.65898418 251.36213779 C416.32950762 260.42575564 416.32950762 260.42575564 414.32260132 265.02008057 C407.29655352 271.91312137 402.33504003 271.96383015 392.62416077 271.89561462 C391.25381813 271.90022535 389.88348044 271.90657942 388.51315308 271.9145236 C384.75283545 271.93121685 380.99292404 271.92297081 377.23260498 271.91057873 C373.1752701 271.90153046 369.1180052 271.91549684 365.0606842 271.92649841 C357.11448981 271.94429063 349.1684465 271.94044054 341.22224617 271.92884785 C334.76457097 271.91981656 328.30693813 271.91858821 321.84925842 271.92294312 C320.93038377 271.92355605 320.01150911 271.92416898 319.06478977 271.92480049 C317.19814935 271.92607938 315.33150894 271.92737623 313.46486855 271.92869085 C295.95883934 271.94009871 278.4528939 271.92697972 260.94687843 271.90548939 C245.92389934 271.88761822 230.90104388 271.89072227 215.87806702 271.90916443 C198.43494633 271.93056751 180.99189907 271.93900005 163.54876709 271.92671537 C161.68896994 271.92544117 159.82917278 271.92418369 157.96937561 271.92294312 C157.0543052 271.92232601 156.13923479 271.92170891 155.19643497 271.92107311 C148.74605612 271.91761852 142.29572382 271.9234509 135.84535217 271.93286133 C127.98513388 271.94407644 120.12507538 271.94105157 112.26487541 271.91973835 C108.25397318 271.90922132 104.24333743 271.90511709 100.23243713 271.91833496 C96.5609368 271.93025141 92.88995004 271.92370922 89.21849632 271.90242475 C87.26076582 271.89583768 85.30299968 271.90890156 83.3453064 271.92265368 C74.97779115 271.84771682 71.46519016 270.87632144 65.49305725 265.0171051 C63.18536245 259.72860819 63.85300926 255.06341837 64.37860131 249.39307094 C64.64407422 246.5054144 64.85565666 243.6144411 65.07101738 240.7226826 C65.18759186 239.16083229 65.30652429 237.59915643 65.42764843 236.03765237 C75.13842898 151.11790126 75.13842898 151.11790126 46.04212952 75.10643005 C30.67741953 57.62061562 11.72354944 42.52576226 -7.90541077 30.0654583 C-11.69552243 27.60910518 -14.1702376 25.6339842 -16.09068298 21.38768005 C-16.91953568 15.83959401 -16.81475249 10.91627123 -14.40318298 5.82518005 C-9.91364129 1.09296043 -6.48718219 0.01255045 0 0 Z " fill="#FFC54D" transform="translate(16.090682983398438,240.61231994628906)"/>
<path d="M0 0 C0.70240974 -0.00538554 1.40481947 -0.01077108 2.12851435 -0.01631981 C4.47611966 -0.03059796 6.82316099 -0.0234963 9.17079163 -0.01637268 C10.85635837 -0.02207634 12.54192124 -0.02904059 14.22747803 -0.03717041 C18.80187476 -0.05511747 23.37607983 -0.05393053 27.9505012 -0.04822803 C31.77015012 -0.0451384 35.5897621 -0.05122612 39.40940577 -0.05726677 C48.42071926 -0.07131548 57.43193796 -0.06974784 66.44325256 -0.05836487 C75.73813958 -0.04688311 85.03273808 -0.06095949 94.32758707 -0.08776134 C102.30990186 -0.10991625 110.29212608 -0.1165562 118.27446944 -0.11068493 C123.04107131 -0.10731367 127.80748824 -0.10974165 132.57406425 -0.12693596 C137.05655416 -0.14239969 141.53861657 -0.13845601 146.02108955 -0.11963081 C147.66499372 -0.11594333 149.30892953 -0.11905807 150.95280457 -0.1295166 C153.19957905 -0.14271816 155.44493654 -0.13118837 157.69165039 -0.11352539 C159.57619383 -0.11321146 159.57619383 -0.11321146 161.49880886 -0.1128912 C165.63715625 0.49450736 167.60586588 1.85121779 170.90931702 4.38768005 C172.01290726 5.19002467 173.11693201 5.9917719 174.2213316 6.79300213 C238.60556759 55.03151278 238.60556759 55.03151278 244.78698921 91.38357735 C248.23437947 116.21100475 246.62710788 141.63598643 244.87915885 166.54317939 C244.08947153 178.00661274 243.72420977 189.47392177 243.3816458 200.95801795 C242.67156985 224.46471279 241.46908244 247.92303554 239.90931702 271.38768005 C218.36927171 271.48111876 196.82925982 271.55165702 175.28905296 271.59492874 C165.28756816 271.61555453 155.28620928 271.64367551 145.2848053 271.68943787 C136.56764219 271.72930505 127.85057028 271.75511274 119.13331854 271.76403403 C114.51750438 271.76924898 109.90195111 271.78150636 105.28622055 271.81060028 C100.94091751 271.83776751 96.59598263 271.84612242 92.25060272 271.84011078 C90.65667088 271.84121043 89.06272661 271.8491567 87.46886826 271.86450195 C85.28974399 271.88445138 83.11200341 271.87960258 80.93284607 271.86869812 C79.71423574 271.87238529 78.49562542 271.87607246 77.24008751 271.87987137 C72.14637475 271.1271683 69.09693104 268.55283956 65.49305725 265.0171051 C63.18536245 259.72860819 63.85300926 255.06341837 64.37860131 249.39307094 C64.64407422 246.5054144 64.85565666 243.6144411 65.07101738 240.7226826 C65.18759186 239.16083229 65.30652429 237.59915643 65.42764843 236.03765237 C75.13842898 151.11790126 75.13842898 151.11790126 46.04212952 75.10643005 C30.67741953 57.62061562 11.72354944 42.52576226 -7.90541077 30.0654583 C-11.69552243 27.60910518 -14.1702376 25.6339842 -16.09068298 21.38768005 C-16.91953568 15.83959401 -16.81475249 10.91627123 -14.40318298 5.82518005 C-9.91364129 1.09296043 -6.48718219 0.01255045 0 0 Z " fill="#FFE65F" transform="translate(16.090682983398438,240.61231994628906)"/>
<path d="M0 0 C0.70155531 -0.00453111 1.40311062 -0.00906223 2.12592518 -0.01373065 C4.47652401 -0.02639006 6.8268916 -0.02475331 9.17752075 -0.02310181 C10.86293842 -0.02908609 12.54835334 -0.03589141 14.23376465 -0.04345703 C18.81231167 -0.06113421 23.39078394 -0.06581313 27.96936178 -0.0670886 C31.79143982 -0.06898752 35.61350045 -0.07634495 39.43557179 -0.08343279 C48.45307938 -0.09972081 57.47054702 -0.10460136 66.48806763 -0.10317993 C75.79030629 -0.1019783 85.09231302 -0.1230834 94.39449298 -0.15466726 C102.3810243 -0.18081782 110.36747981 -0.19154774 118.35405362 -0.19026911 C123.1240365 -0.18975913 127.89381327 -0.19546242 132.66375351 -0.21662521 C137.15031555 -0.23598713 141.63647444 -0.23614618 146.12305069 -0.22159195 C147.76857339 -0.21950021 149.41412119 -0.22422648 151.05960083 -0.23631287 C153.30859939 -0.25176073 155.55620697 -0.24246198 157.80517578 -0.22705078 C159.06283689 -0.22814032 160.32049801 -0.22922985 161.61627007 -0.2303524 C166.62350488 0.49987639 169.8018502 2.67477641 172.86941528 6.65414429 C174.19012914 9.6290856 174.5281774 11.82984397 174.59207153 15.07992554 C174.65588013 16.54365601 174.65588013 16.54365601 174.72097778 18.03695679 C173.92872398 21.7386172 172.25073946 23.62594927 169.96684265 26.56654358 C168.05212105 29.23598772 166.37679631 31.96230684 164.70212841 34.78461266 C158.05499705 45.94558012 150.49865574 56.26405339 142.21707153 66.26742554 C141.50988605 67.12334667 140.80270058 67.97926781 140.07408524 68.86112595 C120.91760876 91.51075981 100.64179766 103.2309214 71.39957941 105.95296741 C48.3061874 107.86220102 25.10524909 107.5359985 1.96707153 106.82992554 C0.94044639 106.79928513 -0.08617875 106.76864471 -1.14391375 106.73707581 C-28.13092055 105.91484747 -55.05699718 104.41085837 -81.97042847 102.26742554 C-84.76895796 75.09044777 -84.76895796 75.09044777 -77.47529221 65.64527607 C-74.03519907 61.85930362 -70.37062089 58.404536 -66.57980347 54.97445679 C-64.99137171 53.43520702 -63.40921587 51.88945737 -61.83303833 50.33766174 C-57.71367489 46.31654242 -53.51425466 42.3909435 -49.29067993 38.47982788 C-44.991744 34.46581347 -40.7816407 30.3606944 -36.56027222 26.26547241 C-30.39681146 20.31529552 -24.20812297 14.39408431 -17.94210815 8.55184937 C-17.29258682 7.94069778 -16.64306549 7.3295462 -15.97386169 6.69987488 C-15.3709581 6.14163025 -14.7680545 5.58338562 -14.1468811 5.00822449 C-13.62698986 4.5241554 -13.10709862 4.04008631 -12.57145309 3.54134846 C-8.452089 0.26360229 -5.24569712 0.01398826 0 0 Z " fill="#F98E00" transform="translate(337.9704284667969,240.73257446289063)"/>
<path d="M0 0 C0.70240974 -0.00538554 1.40481947 -0.01077108 2.12851435 -0.01631981 C4.47611966 -0.03059796 6.82316099 -0.0234963 9.17079163 -0.01637268 C10.85635837 -0.02207634 12.54192124 -0.02904059 14.22747803 -0.03717041 C18.80187476 -0.05511747 23.37607983 -0.05393053 27.9505012 -0.04822803 C31.77015012 -0.0451384 35.5897621 -0.05122612 39.40940577 -0.05726677 C48.42071926 -0.07131548 57.43193796 -0.06974784 66.44325256 -0.05836487 C75.73813958 -0.04688311 85.03273808 -0.06095949 94.32758707 -0.08776134 C102.30990186 -0.10991625 110.29212608 -0.1165562 118.27446944 -0.11068493 C123.04107131 -0.10731367 127.80748824 -0.10974165 132.57406425 -0.12693596 C137.05655416 -0.14239969 141.53861657 -0.13845601 146.02108955 -0.11963081 C147.66499372 -0.11594333 149.30892953 -0.11905807 150.95280457 -0.1295166 C153.19957905 -0.14271816 155.44493654 -0.13118837 157.69165039 -0.11352539 C159.57619383 -0.11321146 159.57619383 -0.11321146 161.49880886 -0.1128912 C166.82385188 0.66868249 170.39296905 3.7102264 174.25035095 7.2930603 C174.83917557 7.83722595 175.42800018 8.3813916 176.03466797 8.94204712 C176.97011192 9.81993645 176.97011192 9.81993645 177.92445374 10.71556091 C178.59832626 11.3425589 179.27219879 11.96955688 179.9664917 12.61555481 C186.17140082 18.41174332 192.29414371 24.29412008 198.39155388 30.20310116 C202.47562295 34.15869915 206.5822201 38.08183096 210.75892639 41.93968201 C214.81962812 45.69182107 218.80165694 49.51362406 222.74238968 53.39143562 C224.2412612 54.84238592 225.76487712 56.2682889 227.31418991 57.66525078 C234.98535292 64.61504437 240.03388162 70.29360227 240.82246399 80.95436096 C241.06712527 88.1173528 240.61667018 95.25993939 239.90931702 102.38768005 C212.02385881 104.70738677 184.12770781 106.26372499 156.15931702 107.13768005 C154.62919243 107.18669378 154.62919243 107.18669378 153.06815624 107.23669767 C61.12305494 110.09605975 61.12305494 110.09605975 28.67201233 80.63172913 C23.44491679 75.60696351 18.67566515 70.26568669 14.03431702 64.70018005 C13.28314102 63.80155746 12.53196503 62.90293488 11.75802612 61.9770813 C2.90817339 51.24096043 -5.05675694 40.04700492 -12.10686874 28.05172157 C-12.99387043 26.5514306 -13.91750442 25.07294381 -14.84535217 23.5975647 C-17.29855299 19.24427097 -16.67960603 14.21684902 -16.09068298 9.38768005 C-12.60267248 2.02410232 -7.89153685 0.01526738 0 0 Z " fill="#FFC54D" transform="translate(16.090682983398438,240.61231994628906)"/>
<path d="M0 0 C1.06089844 0.36222656 2.12179688 0.72445312 3.21484375 1.09765625 C29.61615851 11.12132144 47.49079931 35.04721239 59.02685547 59.88916016 C75.61873274 97.4946291 82.59768962 139.91673252 83.5625 180.8125 C83.61374023 181.99948486 83.66498047 183.18646973 83.71777344 184.40942383 C83.7801199 190.31506585 83.54987064 194.14398552 79.65234375 198.76171875 C76.07821928 202.34812056 73.12467676 203.15882048 68.125 203.25 C62.02495245 203.1614652 59.50659596 201.54083678 55.25 197.1875 C51.83449338 192.34886563 51.88969223 187.44851873 51.60546875 181.65234375 C49.0477868 134.02643432 43.30977037 75.26516577 6.74609375 40.375 C-5.6021412 29.69544545 -19.81813347 26.72750133 -35.76855469 27.77246094 C-45.48757658 28.76350343 -55.49648264 32.50648529 -61.8125 40.2109375 C-67.58521296 48.56471923 -70.0692556 56.85044993 -68.375 67 C-65.55792342 78.96318521 -58.91896006 87.58972625 -48.81640625 94.3046875 C-33.83906608 103.32017382 -18.62756663 106.34952857 -1.42456055 107.14160156 C4.7364216 107.49781594 9.90381377 108.310117 15 112 C18.68053389 116.21206034 19.60280767 120.32246958 19.3203125 125.859375 C18.63351152 130.44921571 16.861786 133.20284795 13.5 136.3125 C3.74169709 142.89935446 -14.36629673 139.01163823 -25.37109375 136.96875 C-50.65084804 131.85254633 -75.20671167 119.97509221 -90 98 C-99.68430514 81.27609956 -103.75185827 63.07835636 -99 44 C-93.75351721 26.70906254 -84.06370273 13.93470067 -68.46875 4.7890625 C-47.64105155 -5.95315134 -22.13125307 -7.6792175 0 0 Z " fill="#F3F9FF" transform="translate(188,52)"/>
<path d="M0 0 C1.44838257 0.01812744 1.44838257 0.01812744 2.92602539 0.03662109 C28.42551877 0.72326596 52.48435719 9.61747792 70.51123047 28.046875 C84.58070158 43.03819116 91.8537106 61.97701679 91.875 82.5 C90.88926127 107.12576029 80.15834331 127.00181678 62.62109375 144.05859375 C37.24112134 166.6225806 1.64549959 175.55833357 -31.625 175.875 C-32.92377075 175.89578613 -32.92377075 175.89578613 -34.2487793 175.91699219 C-39.28005135 175.87919673 -42.77472235 175.29137264 -47.125 172.5 C-51.54832017 167.59848306 -52.49736971 164.58429149 -52.39453125 158.10546875 C-51.97674463 154.06686479 -50.79946616 151.51948346 -48.125 148.5 C-41.19450379 144.05340666 -34.90732228 143.81682279 -26.8125 143.5 C0.45149106 141.96360162 26.79390431 135.24110281 46.5 115 C55.25043816 104.39970674 60.55138127 91.11398299 59.671875 77.3125 C57.96842795 64.94673621 53.13468747 54.7669097 43.58984375 46.52734375 C30.80836067 37.07112456 16.74529503 32.82787762 1 32 C-11.11690599 31.33382156 -11.11690599 31.33382156 -15.67578125 27.0390625 C-19.79552979 22.28104306 -20.48165364 19.15473645 -20.40234375 13.0390625 C-19.86095295 8.08266788 -17.27906954 5.47845026 -13.609375 2.3671875 C-8.94108827 -0.13442804 -5.21599146 -0.10493117 0 0 Z " fill="#E1EEFF" transform="translate(341.125,15.5)"/>
<path d="M0 0 C2.42317102 1.35055574 4.27181196 2.78382186 6.28125 4.6875 C8.169415 6.40460907 8.169415 6.40460907 12 6 C13.78211135 4.68718943 13.78211135 4.68718943 15.5 3 C19.95165705 -0.51797617 23.65802849 -0.75877021 29.22265625 -0.45703125 C34.14534653 0.35303171 36.75266264 2.45158121 39.8125 6.25 C42.04400433 11.41769424 42.43047317 15.31039279 41.0625 20.6796875 C38.80498136 26.35247733 34.45635586 30.15673965 30.125 34.3125 C28.92037109 35.50842773 28.92037109 35.50842773 27.69140625 36.72851562 C21.90055696 42.40011349 17.4302812 46.56395097 9 47 C1.49523653 46.15040414 -2.78275938 41.10887064 -8 36 C-8.91007813 35.12859375 -9.82015625 34.2571875 -10.7578125 33.359375 C-20.58287395 23.79211399 -20.58287395 23.79211399 -21.43359375 18.09765625 C-21.44150672 11.94928199 -21.4465054 7.68685704 -17 3 C-11.57938764 -0.84269438 -6.45844209 -1.08059537 0 0 Z " fill="#132C3E" transform="translate(262,0)"/>
</svg>
